<svg  xmlns="http://www.w3.org/2000/svg" xmlns:xlink="http://www.w3.org/1999/xlink" width="30px" height="50px"><path fill-rule="evenodd"  fill="rgb(134, 188, 37)" d="M29.500,13.833 L16.167,0.500 C16.000,0.333 15.833,0.166 15.667,0.166 C15.333,-0.000 14.833,-0.000 14.334,0.166 C14.167,0.333 13.999,0.333 13.833,0.500 L0.500,13.833 C-0.167,14.500 -0.167,15.500 0.500,16.167 C0.833,16.500 1.333,16.667 1.666,16.667 C2.001,16.667 2.500,16.500 2.833,16.167 L13.334,5.666 L13.334,48.334 C13.334,49.333 13.999,50.000 15.000,50.000 C16.000,50.000 16.666,49.333 16.666,48.334 L16.666,5.666 L27.166,16.167 C27.500,16.500 28.000,16.667 28.334,16.667 C28.667,16.667 29.166,16.500 29.500,16.167 C30.166,15.500 30.166,14.500 29.500,13.833 Z"/></svg>