<?xml version="1.0" encoding="utf-8"?>
<!-- Generator: Adobe Illustrator 19.2.1, SVG Export Plug-In . SVG Version: 6.00 Build 0)  -->
<svg version="1.0" id="Simple_arrow_left" xmlns="http://www.w3.org/2000/svg" xmlns:xlink="http://www.w3.org/1999/xlink" x="0px"
	 y="0px" viewBox="0 0 52 52" enable-background="new 0 0 52 52" xml:space="preserve">
<g>
	<g>
		<path d="M32,41c-0.3,0-0.5-0.1-0.7-0.3l-14-14c-0.4-0.4-0.4-1,0-1.4l14-14c0.4-0.4,1-0.4,1.4,0s0.4,1,0,1.4L19.4,26l13.3,13.3
			c0.4,0.4,0.4,1,0,1.4C32.5,40.9,32.3,41,32,41z"/>
	</g>
</g>
<path d="M26,4c12.1,0,22,9.9,22,22s-9.9,22-22,22S4,38.1,4,26S13.9,4,26,4 M26,2C12.7,2,2,12.7,2,26s10.7,24,24,24s24-10.7,24-24
	S39.3,2,26,2L26,2z"/>
</svg>
