<svg xmlns="http://www.w3.org/2000/svg" width="414" height="78" viewBox="0 0 414 78">
  <metadata><?xpacket begin="﻿" id="W5M0MpCehiHzreSzNTczkc9d"?>
<x:xmpmeta xmlns:x="adobe:ns:meta/" x:xmptk="Adobe XMP Core 5.6-c140 79.160451, 2017/05/06-01:08:21        ">
   <rdf:RDF xmlns:rdf="http://www.w3.org/1999/02/22-rdf-syntax-ns#">
      <rdf:Description rdf:about=""/>
   </rdf:RDF>
</x:xmpmeta>
                                                                                                    
                                                                                                    
                                                                                                    
                                                                                                    
                                                                                                    
                                                                                                    
                                                                                                    
                                                                                                    
                                                                                                    
                                                                                                    
                                                                                                    
                                                                                                    
                                                                                                    
                                                                                                    
                                                                                                    
                                                                                                    
                                                                                                    
                                                                                                    
                                                                                                    
                                                                                                    
                           
<?xpacket end="w"?></metadata>
<defs>
    <style>
      .cls-1 {
        fill: #fff;
      }

      .cls-1, .cls-2 {
        fill-rule: evenodd;
      }

      .cls-2 {
        fill: #86bc25;
      }
    </style>
  </defs>
  <g id="deloitte-logo_RGB_-黑底" data-name="deloitte-logo(RGB)-黑底">
    <g id="deloitte-logo_RGB_-黑底-2" data-name="deloitte-logo(RGB)-黑底">
      <path id="形状_1_拷贝" data-name="形状 1 拷贝" class="cls-1" d="M62.985,149.047c0,12.888-3.2,22.554-10.042,29.459S36.51,188.862,24.186,188.862H-0.007V112.225H25.555c12.1,0,21.225,2.991,27.616,9.435,6.619,6.214,9.814,15.42,9.814,27.387m-21,.691c0-7.135-1.369-12.2-4.108-15.65-2.511-3.222-6.847-5.063-12.324-5.063H20.078v42.806h4.565c6.162,0,10.5-1.841,13.466-5.523,2.511-3.682,3.88-9.206,3.88-16.57M129.4,111.994h18.943v76.868H129.4V111.994Zm81.478,48.1c0,9.206-2.282,16.57-7.3,21.864s-11.868,7.824-20.541,7.824c-8.444,0-15.063-2.531-20.084-8.055s-7.532-12.657-7.532-21.633c0-9.206,2.283-16.57,7.3-21.633,5.021-5.293,11.868-7.825,20.54-7.825a28.938,28.938,0,0,1,14.379,3.452,22.787,22.787,0,0,1,9.586,10.126c2.738,4.833,3.651,9.9,3.651,15.88m-35.832,0c0,5.063.685,8.515,1.826,11.047s3.195,3.682,6.39,3.682,5.022-1.151,6.391-3.682a28.4,28.4,0,0,0,1.826-11.047c0-5.063-.685-8.515-1.826-11.047-1.141-2.3-3.195-3.682-6.391-3.682a6.842,6.842,0,0,0-6.39,3.682c-1.141,2.532-1.826,5.984-1.826,11.047m43.592-28.537h18.943v57.075H218.638V131.557Zm0-19.563h18.943v12.888H218.638V111.994Zm57.514,62.139a30.458,30.458,0,0,0,9.129-1.841v14.5a33.2,33.2,0,0,1-7.3,2.3,42.206,42.206,0,0,1-8.216.69c-6.391,0-10.955-1.611-13.922-5.063-2.739-3.222-4.337-8.285-4.337-14.959V146.286h-6.618V131.557H251.5V117.288l19.172-3.222v17.951H283v14.5H270.675v22.093c0.456,3.913,2.054,5.524,5.477,5.524m44.277,0a30.464,30.464,0,0,0,9.129-1.841v14.5a33.2,33.2,0,0,1-7.3,2.3,42.217,42.217,0,0,1-8.217.69c-6.39,0-10.955-1.611-13.922-5.063-2.738-3.222-4.336-8.285-4.336-14.959V146.286h-6.619V131.557h6.619v-14.5l19.171-2.992v17.951h12.325v14.5H314.951v22.093c0.229,3.913,2.054,5.524,5.478,5.524m60.253-36.823c-4.565-4.6-10.955-6.674-19.172-6.674-8.672,0-15.519,2.532-20.312,7.825s-7.075,12.658-7.075,22.324c0,9.205,2.51,16.57,7.531,21.633,5.25,5.063,12.325,7.595,21.454,7.595a54.511,54.511,0,0,0,11.412-.921,33.255,33.255,0,0,0,9.129-3.222l-2.739-12.888a35.12,35.12,0,0,1-15.291,2.992,13.914,13.914,0,0,1-8.673-2.532,9.755,9.755,0,0,1-3.2-7.594h34.006v-8.976c-0.228-8.515-2.739-14.959-7.075-19.562m-26.931,15.88c0.228-2.992,1.141-5.524,2.51-6.9a7.559,7.559,0,0,1,5.706-2.072,7.709,7.709,0,0,1,5.934,2.3c1.369,1.611,2.054,3.682,2.282,6.674H353.751Zm-238.5-15.88c-4.793-4.6-10.955-6.674-19.172-6.674-8.673,0-15.52,2.532-20.312,7.825s-7.075,12.658-7.075,22.324c0,9.205,2.511,16.57,7.532,21.633,5.249,5.063,12.324,7.595,21.454,7.595a54.511,54.511,0,0,0,11.412-.921,33.255,33.255,0,0,0,9.129-3.222l-2.739-13.118a38.764,38.764,0,0,1-6.162,2.071,38.369,38.369,0,0,1-9.129.921,13.915,13.915,0,0,1-8.673-2.532,9.755,9.755,0,0,1-3.2-7.594h34.006v-8.746c-0.228-8.515-2.739-14.959-7.075-19.562M88.09,153.19c0.228-2.992,1.141-5.524,2.51-6.9a7.558,7.558,0,0,1,5.706-2.072c2.511,0,4.564.691,5.934,2.3s2.054,3.682,2.282,6.674H88.09Z" transform="translate(0 -112)"/>
      <path id="形状_1_拷贝_3" data-name="形状 1 拷贝 3" class="cls-2" d="M392.093,178.736a10.955,10.955,0,1,1,21.91,0,11.154,11.154,0,0,1-10.955,11.046,11,11,0,0,1-10.955-11.046" transform="translate(0 -112)"/>
    </g>
  </g>
</svg>
