<svg  xmlns="http://www.w3.org/2000/svg" xmlns:xlink="http://www.w3.org/1999/xlink" width="44px" height="39px"><path fill-rule="evenodd"  fill="rgb(134, 188, 37)" d="M40.797,3.405 C38.745,1.197 35.814,0.021 32.883,0.021 C29.951,0.021 27.021,1.197 24.967,3.405 L22.035,6.495 L19.106,3.405 C17.053,1.197 14.123,0.021 11.190,0.021 C8.259,0.021 5.328,1.197 3.276,3.405 C-1.121,7.966 -1.121,15.324 3.276,19.885 L20.865,38.573 C21.157,38.868 21.596,39.015 21.891,39.015 C21.891,39.015 21.891,39.015 22.035,39.015 C22.035,39.015 22.035,39.015 22.183,39.015 C22.622,39.015 22.916,38.868 23.209,38.573 L36.840,24.006 L40.797,19.885 C45.047,15.324 45.047,7.966 40.797,3.405 Z"/></svg>