<svg
 xmlns="http://www.w3.org/2000/svg"
 xmlns:xlink="http://www.w3.org/1999/xlink"
 width="44px" height="39px">
<path fill-rule="evenodd"  fill="rgb(151, 153, 155)"
 d="M40.797,3.405 C38.745,1.197 35.814,0.021 32.883,0.021 C29.951,0.021 27.021,1.197 24.967,3.405 L22.035,6.495 L19.106,3.405 C17.053,1.197 14.123,0.021 11.190,0.021 C8.259,0.021 5.328,1.197 3.276,3.405 C-1.121,7.966 -1.121,15.324 3.276,19.885 L20.865,38.573 C21.157,38.868 21.596,39.015 21.891,39.015 C21.891,39.015 21.891,39.015 22.035,39.015 C22.035,39.015 22.035,39.015 22.183,39.015 C22.622,39.015 22.916,38.868 23.209,38.573 L36.840,24.006 L40.797,19.885 C45.047,15.324 45.047,7.966 40.797,3.405 ZM38.599,17.826 L21.891,35.483 L9.138,21.946 L5.182,17.826 C1.957,14.441 1.957,8.849 5.182,5.464 C6.794,3.846 8.846,2.963 11.043,2.963 C13.243,2.963 15.295,3.846 16.906,5.464 L20.865,9.585 L20.865,9.585 L20.865,9.585 L21.011,9.732 C21.157,9.732 21.157,9.879 21.304,9.879 C21.451,9.879 21.451,9.879 21.596,9.879 C21.744,9.879 21.744,9.879 21.891,9.879 C22.035,9.879 22.035,9.879 22.183,9.879 C22.330,9.879 22.330,9.879 22.476,9.879 C22.622,9.879 22.622,9.732 22.769,9.732 C22.916,9.732 22.916,9.585 23.063,9.585 L23.063,9.585 L23.063,9.585 L27.021,5.464 C28.632,3.846 30.683,2.963 32.883,2.963 C35.081,2.963 37.133,3.846 38.745,5.464 C41.970,8.849 41.970,14.441 38.599,17.826 Z"/>
</svg>
