<svg  xmlns="http://www.w3.org/2000/svg" xmlns:xlink="http://www.w3.org/1999/xlink" width="24px" height="14px"><path fill-rule="evenodd"  fill="rgb(151, 153, 155)" d="M23.749,7.467 C21.583,10.655 17.249,14.000 11.953,14.000 C6.093,14.000 1.680,9.800 0.075,7.389 C-0.005,7.311 -0.005,7.155 -0.005,7.000 C-0.005,6.844 0.075,6.688 0.155,6.533 C2.323,3.344 6.655,-0.001 11.953,-0.001 C17.810,-0.001 22.224,4.200 23.830,6.611 C23.910,6.688 23.990,6.844 23.990,7.000 C23.990,7.155 23.990,7.311 23.749,7.467 ZM12.032,1.555 C7.539,1.555 3.927,4.277 1.841,7.000 C3.445,9.177 7.138,12.444 12.032,12.444 C16.526,12.444 20.137,9.722 22.224,7.000 C20.619,4.822 16.928,1.555 12.032,1.555 ZM11.953,10.889 C9.705,10.889 7.940,9.177 7.940,7.000 C7.940,4.822 9.705,3.111 11.953,3.111 C14.199,3.111 15.965,4.822 15.965,7.000 C15.965,9.177 14.199,10.889 11.953,10.889 ZM11.953,4.667 C10.587,4.667 9.545,5.678 9.545,7.000 C9.545,8.322 10.587,9.333 11.953,9.333 C13.316,9.333 14.360,8.322 14.360,7.000 C14.360,5.678 13.316,4.667 11.953,4.667 Z"/></svg>