<svg  xmlns="http://www.w3.org/2000/svg" xmlns:xlink="http://www.w3.org/1999/xlink" width="44px" height="44px"><path fill-rule="evenodd"  fill="rgb(134, 188, 37)" d="M42.308,44.000 L1.692,44.000 C0.678,44.000 -0.001,43.323 -0.001,42.308 L-0.001,1.692 C-0.001,0.677 0.678,0.000 1.692,0.000 L20.308,0.000 C21.323,0.000 22.000,0.677 22.000,1.692 C22.000,2.708 21.323,3.385 20.308,3.385 L3.385,3.385 L3.385,40.616 L40.615,40.616 L40.615,23.692 C40.615,22.677 41.292,22.000 42.308,22.000 C43.323,22.000 44.000,22.677 44.000,23.692 L44.000,42.308 C44.000,43.323 43.323,44.000 42.308,44.000 ZM42.308,16.923 C41.292,16.923 40.615,16.246 40.615,15.231 L40.615,5.754 L23.185,23.185 C22.846,23.523 22.338,23.692 22.000,23.692 C21.661,23.692 21.154,23.523 20.816,23.185 C20.138,22.508 20.138,21.493 20.816,20.816 L38.246,3.385 L28.769,3.385 C27.753,3.385 27.077,2.708 27.077,1.692 C27.077,0.677 27.753,0.000 28.769,0.000 L42.308,0.000 C42.477,0.000 42.815,0.000 42.984,0.169 C43.323,0.339 43.662,0.677 43.830,1.015 C44.000,1.185 44.000,1.523 44.000,1.692 L44.000,15.231 C44.000,16.246 43.323,16.923 42.308,16.923 Z"/></svg>